<mxfile host="app.diagrams.net" agent="Mozilla/5.0 (X11; Ubuntu; Linux x86_64; rv:109.0) Gecko/20100101 Firefox/117.0" version="24.8.6">
  <diagram id="R2lEEEUBdFMjLlhIrx00" name="Page-1">
    <mxGraphModel dx="1318" dy="548" grid="1" gridSize="10" guides="1" tooltips="1" connect="1" arrows="1" fold="1" page="1" pageScale="1" pageWidth="850" pageHeight="1100" math="0" shadow="0" extFonts="Permanent Marker^https://fonts.googleapis.com/css?family=Permanent+Marker">
      <root>
        <mxCell id="0" />
        <mxCell id="1" parent="0" />
        <mxCell id="lJmSRfU9jsoVM-i2f_cR-11" value="" style="group" vertex="1" connectable="0" parent="1">
          <mxGeometry x="450" y="120" width="200" height="180" as="geometry" />
        </mxCell>
        <mxCell id="lJmSRfU9jsoVM-i2f_cR-2" value="Styles" style="whiteSpace=wrap;html=1;align=center;" vertex="1" parent="lJmSRfU9jsoVM-i2f_cR-11">
          <mxGeometry width="100" height="40" as="geometry" />
        </mxCell>
        <mxCell id="lJmSRfU9jsoVM-i2f_cR-3" value="style_id" style="ellipse;whiteSpace=wrap;html=1;align=center;fontStyle=4;" vertex="1" parent="lJmSRfU9jsoVM-i2f_cR-11">
          <mxGeometry x="100" y="60" width="100" height="40" as="geometry" />
        </mxCell>
        <mxCell id="lJmSRfU9jsoVM-i2f_cR-5" value="" style="endArrow=none;html=1;rounded=0;exitX=0.5;exitY=1;exitDx=0;exitDy=0;" edge="1" parent="lJmSRfU9jsoVM-i2f_cR-11" source="lJmSRfU9jsoVM-i2f_cR-2">
          <mxGeometry relative="1" as="geometry">
            <mxPoint x="170" y="330" as="sourcePoint" />
            <mxPoint x="50" y="160" as="targetPoint" />
          </mxGeometry>
        </mxCell>
        <mxCell id="lJmSRfU9jsoVM-i2f_cR-7" value="style_name" style="ellipse;whiteSpace=wrap;html=1;align=center;" vertex="1" parent="lJmSRfU9jsoVM-i2f_cR-11">
          <mxGeometry x="100" y="140" width="100" height="40" as="geometry" />
        </mxCell>
        <mxCell id="lJmSRfU9jsoVM-i2f_cR-9" value="" style="endArrow=none;html=1;rounded=0;entryX=0;entryY=0.5;entryDx=0;entryDy=0;" edge="1" parent="lJmSRfU9jsoVM-i2f_cR-11" target="lJmSRfU9jsoVM-i2f_cR-7">
          <mxGeometry relative="1" as="geometry">
            <mxPoint x="50" y="160" as="sourcePoint" />
            <mxPoint x="330" y="330" as="targetPoint" />
          </mxGeometry>
        </mxCell>
        <mxCell id="lJmSRfU9jsoVM-i2f_cR-10" value="" style="endArrow=none;html=1;rounded=0;entryX=0;entryY=0.5;entryDx=0;entryDy=0;" edge="1" parent="lJmSRfU9jsoVM-i2f_cR-11" target="lJmSRfU9jsoVM-i2f_cR-3">
          <mxGeometry relative="1" as="geometry">
            <mxPoint x="50" y="80" as="sourcePoint" />
            <mxPoint x="330" y="330" as="targetPoint" />
          </mxGeometry>
        </mxCell>
        <mxCell id="lJmSRfU9jsoVM-i2f_cR-24" value="" style="group" vertex="1" connectable="0" parent="1">
          <mxGeometry x="110" y="120" width="200" height="280" as="geometry" />
        </mxCell>
        <mxCell id="lJmSRfU9jsoVM-i2f_cR-12" value="Outfits" style="whiteSpace=wrap;html=1;align=center;" vertex="1" parent="lJmSRfU9jsoVM-i2f_cR-24">
          <mxGeometry width="100" height="40" as="geometry" />
        </mxCell>
        <mxCell id="lJmSRfU9jsoVM-i2f_cR-14" value="" style="endArrow=none;html=1;rounded=0;exitX=0.5;exitY=1;exitDx=0;exitDy=0;" edge="1" parent="lJmSRfU9jsoVM-i2f_cR-24" source="lJmSRfU9jsoVM-i2f_cR-12">
          <mxGeometry relative="1" as="geometry">
            <mxPoint x="150" y="370" as="sourcePoint" />
            <mxPoint x="50" y="260" as="targetPoint" />
          </mxGeometry>
        </mxCell>
        <mxCell id="lJmSRfU9jsoVM-i2f_cR-16" value="outfit_id" style="ellipse;whiteSpace=wrap;html=1;align=center;fontStyle=4;" vertex="1" parent="lJmSRfU9jsoVM-i2f_cR-24">
          <mxGeometry x="100" y="60" width="100" height="40" as="geometry" />
        </mxCell>
        <mxCell id="lJmSRfU9jsoVM-i2f_cR-17" value="outfit_name" style="ellipse;whiteSpace=wrap;html=1;align=center;" vertex="1" parent="lJmSRfU9jsoVM-i2f_cR-24">
          <mxGeometry x="100" y="120" width="100" height="40" as="geometry" />
        </mxCell>
        <mxCell id="lJmSRfU9jsoVM-i2f_cR-18" value="occasion" style="ellipse;whiteSpace=wrap;html=1;align=center;" vertex="1" parent="lJmSRfU9jsoVM-i2f_cR-24">
          <mxGeometry x="100" y="180" width="100" height="40" as="geometry" />
        </mxCell>
        <mxCell id="lJmSRfU9jsoVM-i2f_cR-19" value="season" style="ellipse;whiteSpace=wrap;html=1;align=center;" vertex="1" parent="lJmSRfU9jsoVM-i2f_cR-24">
          <mxGeometry x="100" y="240" width="100" height="40" as="geometry" />
        </mxCell>
        <mxCell id="lJmSRfU9jsoVM-i2f_cR-20" value="" style="endArrow=none;html=1;rounded=0;entryX=0;entryY=0.5;entryDx=0;entryDy=0;" edge="1" parent="lJmSRfU9jsoVM-i2f_cR-24" target="lJmSRfU9jsoVM-i2f_cR-19">
          <mxGeometry relative="1" as="geometry">
            <mxPoint x="50" y="260" as="sourcePoint" />
            <mxPoint x="310" y="370" as="targetPoint" />
          </mxGeometry>
        </mxCell>
        <mxCell id="lJmSRfU9jsoVM-i2f_cR-21" value="" style="endArrow=none;html=1;rounded=0;exitX=0;exitY=0.5;exitDx=0;exitDy=0;" edge="1" parent="lJmSRfU9jsoVM-i2f_cR-24" source="lJmSRfU9jsoVM-i2f_cR-18">
          <mxGeometry relative="1" as="geometry">
            <mxPoint x="150" y="370" as="sourcePoint" />
            <mxPoint x="50" y="200" as="targetPoint" />
          </mxGeometry>
        </mxCell>
        <mxCell id="lJmSRfU9jsoVM-i2f_cR-22" value="" style="endArrow=none;html=1;rounded=0;entryX=0;entryY=0.5;entryDx=0;entryDy=0;" edge="1" parent="lJmSRfU9jsoVM-i2f_cR-24" target="lJmSRfU9jsoVM-i2f_cR-17">
          <mxGeometry relative="1" as="geometry">
            <mxPoint x="50" y="140" as="sourcePoint" />
            <mxPoint x="310" y="370" as="targetPoint" />
          </mxGeometry>
        </mxCell>
        <mxCell id="lJmSRfU9jsoVM-i2f_cR-23" value="" style="endArrow=none;html=1;rounded=0;entryX=0;entryY=0.5;entryDx=0;entryDy=0;" edge="1" parent="lJmSRfU9jsoVM-i2f_cR-24" target="lJmSRfU9jsoVM-i2f_cR-16">
          <mxGeometry relative="1" as="geometry">
            <mxPoint x="50" y="80" as="sourcePoint" />
            <mxPoint x="310" y="370" as="targetPoint" />
          </mxGeometry>
        </mxCell>
        <mxCell id="lJmSRfU9jsoVM-i2f_cR-38" value="" style="group" vertex="1" connectable="0" parent="1">
          <mxGeometry x="-240" y="290" width="300" height="230" as="geometry" />
        </mxCell>
        <mxCell id="lJmSRfU9jsoVM-i2f_cR-25" value="ClothingItems" style="whiteSpace=wrap;html=1;align=center;" vertex="1" parent="lJmSRfU9jsoVM-i2f_cR-38">
          <mxGeometry x="100" width="100" height="40" as="geometry" />
        </mxCell>
        <mxCell id="lJmSRfU9jsoVM-i2f_cR-26" value="" style="endArrow=none;html=1;rounded=0;exitX=0.5;exitY=1;exitDx=0;exitDy=0;" edge="1" parent="lJmSRfU9jsoVM-i2f_cR-38" source="lJmSRfU9jsoVM-i2f_cR-25">
          <mxGeometry relative="1" as="geometry">
            <mxPoint x="250" y="370" as="sourcePoint" />
            <mxPoint x="150" y="210" as="targetPoint" />
          </mxGeometry>
        </mxCell>
        <mxCell id="lJmSRfU9jsoVM-i2f_cR-28" value="item_id" style="ellipse;whiteSpace=wrap;html=1;align=center;fontStyle=4;" vertex="1" parent="lJmSRfU9jsoVM-i2f_cR-38">
          <mxGeometry x="200" y="50" width="100" height="40" as="geometry" />
        </mxCell>
        <mxCell id="lJmSRfU9jsoVM-i2f_cR-29" value="item_name" style="ellipse;whiteSpace=wrap;html=1;align=center;" vertex="1" parent="lJmSRfU9jsoVM-i2f_cR-38">
          <mxGeometry x="200" y="120" width="100" height="40" as="geometry" />
        </mxCell>
        <mxCell id="lJmSRfU9jsoVM-i2f_cR-30" value="type" style="ellipse;whiteSpace=wrap;html=1;align=center;" vertex="1" parent="lJmSRfU9jsoVM-i2f_cR-38">
          <mxGeometry x="200" y="190" width="100" height="40" as="geometry" />
        </mxCell>
        <mxCell id="lJmSRfU9jsoVM-i2f_cR-31" value="colour" style="ellipse;whiteSpace=wrap;html=1;align=center;" vertex="1" parent="lJmSRfU9jsoVM-i2f_cR-38">
          <mxGeometry y="50" width="100" height="40" as="geometry" />
        </mxCell>
        <mxCell id="lJmSRfU9jsoVM-i2f_cR-32" value="fabric" style="ellipse;whiteSpace=wrap;html=1;align=center;" vertex="1" parent="lJmSRfU9jsoVM-i2f_cR-38">
          <mxGeometry y="120" width="100" height="40" as="geometry" />
        </mxCell>
        <mxCell id="lJmSRfU9jsoVM-i2f_cR-33" value="price" style="ellipse;whiteSpace=wrap;html=1;align=center;" vertex="1" parent="lJmSRfU9jsoVM-i2f_cR-38">
          <mxGeometry y="190" width="100" height="40" as="geometry" />
        </mxCell>
        <mxCell id="lJmSRfU9jsoVM-i2f_cR-34" value="" style="endArrow=none;html=1;rounded=0;exitX=0;exitY=0.5;exitDx=0;exitDy=0;" edge="1" parent="lJmSRfU9jsoVM-i2f_cR-38" source="lJmSRfU9jsoVM-i2f_cR-30">
          <mxGeometry relative="1" as="geometry">
            <mxPoint x="150" y="370" as="sourcePoint" />
            <mxPoint x="150" y="210" as="targetPoint" />
          </mxGeometry>
        </mxCell>
        <mxCell id="lJmSRfU9jsoVM-i2f_cR-35" value="" style="endArrow=none;html=1;rounded=0;exitX=1;exitY=0.5;exitDx=0;exitDy=0;" edge="1" parent="lJmSRfU9jsoVM-i2f_cR-38" source="lJmSRfU9jsoVM-i2f_cR-33">
          <mxGeometry relative="1" as="geometry">
            <mxPoint x="150" y="370" as="sourcePoint" />
            <mxPoint x="150" y="210" as="targetPoint" />
          </mxGeometry>
        </mxCell>
        <mxCell id="lJmSRfU9jsoVM-i2f_cR-36" value="" style="endArrow=none;html=1;rounded=0;exitX=0;exitY=0.5;exitDx=0;exitDy=0;entryX=1;entryY=0.5;entryDx=0;entryDy=0;" edge="1" parent="lJmSRfU9jsoVM-i2f_cR-38" source="lJmSRfU9jsoVM-i2f_cR-29" target="lJmSRfU9jsoVM-i2f_cR-32">
          <mxGeometry relative="1" as="geometry">
            <mxPoint x="150" y="370" as="sourcePoint" />
            <mxPoint x="310" y="370" as="targetPoint" />
          </mxGeometry>
        </mxCell>
        <mxCell id="lJmSRfU9jsoVM-i2f_cR-37" value="" style="endArrow=none;html=1;rounded=0;exitX=1;exitY=0.5;exitDx=0;exitDy=0;entryX=0;entryY=0.5;entryDx=0;entryDy=0;" edge="1" parent="lJmSRfU9jsoVM-i2f_cR-38" source="lJmSRfU9jsoVM-i2f_cR-31" target="lJmSRfU9jsoVM-i2f_cR-28">
          <mxGeometry relative="1" as="geometry">
            <mxPoint x="150" y="370" as="sourcePoint" />
            <mxPoint x="310" y="370" as="targetPoint" />
          </mxGeometry>
        </mxCell>
        <mxCell id="lJmSRfU9jsoVM-i2f_cR-45" value="Uses" style="shape=rhombus;perimeter=rhombusPerimeter;whiteSpace=wrap;html=1;align=center;" vertex="1" parent="1">
          <mxGeometry x="290" y="110" width="120" height="60" as="geometry" />
        </mxCell>
        <mxCell id="lJmSRfU9jsoVM-i2f_cR-46" value="" style="endArrow=none;html=1;rounded=0;entryX=1;entryY=0.5;entryDx=0;entryDy=0;exitX=0;exitY=0.5;exitDx=0;exitDy=0;" edge="1" parent="1" source="lJmSRfU9jsoVM-i2f_cR-2" target="lJmSRfU9jsoVM-i2f_cR-45">
          <mxGeometry relative="1" as="geometry">
            <mxPoint x="340" y="410" as="sourcePoint" />
            <mxPoint x="500" y="410" as="targetPoint" />
          </mxGeometry>
        </mxCell>
        <mxCell id="lJmSRfU9jsoVM-i2f_cR-47" value="1" style="resizable=0;html=1;whiteSpace=wrap;align=right;verticalAlign=bottom;" connectable="0" vertex="1" parent="lJmSRfU9jsoVM-i2f_cR-46">
          <mxGeometry x="1" relative="1" as="geometry" />
        </mxCell>
        <mxCell id="lJmSRfU9jsoVM-i2f_cR-48" value="" style="endArrow=none;html=1;rounded=0;entryX=0;entryY=0.5;entryDx=0;entryDy=0;exitX=1;exitY=0.5;exitDx=0;exitDy=0;" edge="1" parent="1" source="lJmSRfU9jsoVM-i2f_cR-12" target="lJmSRfU9jsoVM-i2f_cR-45">
          <mxGeometry relative="1" as="geometry">
            <mxPoint x="340" y="410" as="sourcePoint" />
            <mxPoint x="500" y="410" as="targetPoint" />
          </mxGeometry>
        </mxCell>
        <mxCell id="lJmSRfU9jsoVM-i2f_cR-49" value="N" style="resizable=0;html=1;whiteSpace=wrap;align=right;verticalAlign=bottom;" connectable="0" vertex="1" parent="lJmSRfU9jsoVM-i2f_cR-48">
          <mxGeometry x="1" relative="1" as="geometry" />
        </mxCell>
        <mxCell id="lJmSRfU9jsoVM-i2f_cR-50" value="Combines" style="shape=rhombus;double=1;perimeter=rhombusPerimeter;whiteSpace=wrap;html=1;align=center;" vertex="1" parent="1">
          <mxGeometry x="-150" y="110" width="120" height="60" as="geometry" />
        </mxCell>
        <mxCell id="lJmSRfU9jsoVM-i2f_cR-51" value="" style="group" vertex="1" connectable="0" parent="1">
          <mxGeometry x="-320" y="20" width="100" height="140" as="geometry" />
        </mxCell>
        <mxCell id="lJmSRfU9jsoVM-i2f_cR-39" value="OutfitItems" style="shape=ext;margin=3;double=1;whiteSpace=wrap;html=1;align=center;" vertex="1" parent="lJmSRfU9jsoVM-i2f_cR-51">
          <mxGeometry y="100" width="100" height="40" as="geometry" />
        </mxCell>
        <mxCell id="lJmSRfU9jsoVM-i2f_cR-40" value="" style="endArrow=none;html=1;rounded=0;entryX=0.5;entryY=0;entryDx=0;entryDy=0;exitX=0.5;exitY=0;exitDx=0;exitDy=0;" edge="1" parent="lJmSRfU9jsoVM-i2f_cR-51" source="lJmSRfU9jsoVM-i2f_cR-39" target="lJmSRfU9jsoVM-i2f_cR-41">
          <mxGeometry relative="1" as="geometry">
            <mxPoint x="190" y="470" as="sourcePoint" />
            <mxPoint x="170" y="220" as="targetPoint" />
          </mxGeometry>
        </mxCell>
        <mxCell id="lJmSRfU9jsoVM-i2f_cR-41" value="outfit_item_id" style="ellipse;whiteSpace=wrap;html=1;align=center;" vertex="1" parent="lJmSRfU9jsoVM-i2f_cR-51">
          <mxGeometry width="100" height="40" as="geometry" />
        </mxCell>
        <mxCell id="lJmSRfU9jsoVM-i2f_cR-52" value="" style="shape=link;html=1;rounded=0;exitX=1;exitY=0.5;exitDx=0;exitDy=0;entryX=0;entryY=0.5;entryDx=0;entryDy=0;" edge="1" parent="1" source="lJmSRfU9jsoVM-i2f_cR-39" target="lJmSRfU9jsoVM-i2f_cR-50">
          <mxGeometry relative="1" as="geometry">
            <mxPoint x="-250" y="410" as="sourcePoint" />
            <mxPoint x="-90" y="410" as="targetPoint" />
          </mxGeometry>
        </mxCell>
        <mxCell id="lJmSRfU9jsoVM-i2f_cR-53" value="M" style="resizable=0;html=1;whiteSpace=wrap;align=left;verticalAlign=bottom;" connectable="0" vertex="1" parent="lJmSRfU9jsoVM-i2f_cR-52">
          <mxGeometry x="-1" relative="1" as="geometry" />
        </mxCell>
        <mxCell id="lJmSRfU9jsoVM-i2f_cR-59" value="" style="shape=link;html=1;rounded=0;exitX=0.95;exitY=0.5;exitDx=0;exitDy=0;exitPerimeter=0;" edge="1" parent="1" source="lJmSRfU9jsoVM-i2f_cR-50" target="lJmSRfU9jsoVM-i2f_cR-12">
          <mxGeometry relative="1" as="geometry">
            <mxPoint x="-120" y="410" as="sourcePoint" />
            <mxPoint x="40" y="410" as="targetPoint" />
          </mxGeometry>
        </mxCell>
        <mxCell id="lJmSRfU9jsoVM-i2f_cR-60" value="N" style="resizable=0;html=1;whiteSpace=wrap;align=left;verticalAlign=bottom;" connectable="0" vertex="1" parent="lJmSRfU9jsoVM-i2f_cR-59">
          <mxGeometry x="-1" relative="1" as="geometry" />
        </mxCell>
        <mxCell id="lJmSRfU9jsoVM-i2f_cR-61" value="1" style="resizable=0;html=1;whiteSpace=wrap;align=right;verticalAlign=bottom;" connectable="0" vertex="1" parent="lJmSRfU9jsoVM-i2f_cR-59">
          <mxGeometry x="1" relative="1" as="geometry" />
        </mxCell>
        <mxCell id="lJmSRfU9jsoVM-i2f_cR-62" value="" style="shape=link;html=1;rounded=0;exitX=0.5;exitY=1;exitDx=0;exitDy=0;entryX=0.5;entryY=0;entryDx=0;entryDy=0;" edge="1" parent="1" source="lJmSRfU9jsoVM-i2f_cR-50" target="lJmSRfU9jsoVM-i2f_cR-25">
          <mxGeometry relative="1" as="geometry">
            <mxPoint x="-26" y="150" as="sourcePoint" />
            <mxPoint x="-60" y="280" as="targetPoint" />
          </mxGeometry>
        </mxCell>
        <mxCell id="lJmSRfU9jsoVM-i2f_cR-63" value="M" style="resizable=0;html=1;whiteSpace=wrap;align=left;verticalAlign=bottom;" connectable="0" vertex="1" parent="lJmSRfU9jsoVM-i2f_cR-62">
          <mxGeometry x="-1" relative="1" as="geometry">
            <mxPoint y="20" as="offset" />
          </mxGeometry>
        </mxCell>
        <mxCell id="lJmSRfU9jsoVM-i2f_cR-64" value="1" style="resizable=0;html=1;whiteSpace=wrap;align=right;verticalAlign=bottom;" connectable="0" vertex="1" parent="lJmSRfU9jsoVM-i2f_cR-62">
          <mxGeometry x="1" relative="1" as="geometry" />
        </mxCell>
      </root>
    </mxGraphModel>
  </diagram>
</mxfile>
